<?xml version="1.0" encoding="utf-8"?>
<!-- Generator: Adobe Illustrator 17.0.0, SVG Export Plug-In . SVG Version: 6.00 Build 0)  -->
<!DOCTYPE svg PUBLIC "-//W3C//DTD SVG 1.1//EN" "http://www.w3.org/Graphics/SVG/1.1/DTD/svg11.dtd">
<svg version="1.1" id="Layer_1" xmlns="http://www.w3.org/2000/svg" xmlns:xlink="http://www.w3.org/1999/xlink" x="0px" y="0px"
	 width="226.027px" height="180.103px" viewBox="-707.748 -136.232 226.027 180.103"
	 enable-background="new -707.748 -136.232 226.027 180.103" xml:space="preserve">
<g>
	<path fill-rule="evenodd" clip-rule="evenodd" fill="#DD2A1B" d="M-647.261-20.269c0.863-12.023,22.507-11.739,31.777-11.954
		c10.171-0.232,66.989,2.803,68.904-5.665c1.727-7.711-20.87-30.95-26.523-35.126c-9.587-7.083-33.901,32.833-43.724,36.534
		c-8.268,3.125-11.689-4.086-11.994-10.719c-0.244-5.685,0.749-13.801,2.02-21.704c-6.703,8.17-13.593,17.752-16.828,23.304
		c-9.76,16.762-16.384,37.496,11.583,40.788l5.993,0.402l-6.025,0.232c-50.381-0.579-10.066-67.666,7.299-83.671
		c6.914-6.353,13.559-2.57,12.636,3.404c-1.098,7.103-4.846,24.207-5.043,34.37c12.258-12.831,33.607-47.278,53.065-29.947
		c11.57,10.322,47.472,44.825,17.83,55.135c-14.162,4.919-52.155-2.019-69.331-3.459C-624.477-29.073-645.005-31.637-647.261-20.269
		L-647.261-20.269z"/>
</g>
</svg>
